<svg xmlns="http://www.w3.org/2000/svg" aria-hidden="true" style="position:absolute;width:0;height:0;overflow:hidden">
  <defs>
    <symbol id="icon-arrow" viewBox="0 0 32 32">
      <path d="M27.766 17.957a42.712 42.712 0 0 1-.337-3.49c-.022-1.04.017-1.94.119-2.7L2.255 26.37l-1.197-2.073L26.351 9.694a22.284 22.284 0 0 1-2.426-1.297A48.166 48.166 0 0 1 21.1 6.409l1.519-.877c3.209 1.349 6.143 2.024 8.804 2.023l.513.888c-1.35 2.271-2.233 5.149-2.65 8.636l-1.519.877z"/>
    </symbol>
    <symbol id="icon-facebook" viewBox="0 0 32 32">
      <path d="M19.52 4.64h.96v3.6h-1.2c-.48 0-.96 0-1.2.24s-.24.48-.24 1.04v1.28h2.64v3.04h-2.64v13.2h-4.08V13.76H11.6v-3.04h2.16V9.68c0-1.76.24-3.04.72-3.6.72-1.04 2.16-1.52 4.32-1.52.24.08.48.08.72.08z"/>
    </symbol>
    <symbol id="icon-instagram" viewBox="0 0 32 32">
      <path d="M28.717 10.756a9.264 9.264 0 0 0-.596-3.145 6.547 6.547 0 0 0-3.743-3.737 9.42 9.42 0 0 0-3.108-.596c-1.368-.061-1.801-.078-5.273-.078s-3.917 0-5.274.078a9.418 9.418 0 0 0-3.106.596 6.541 6.541 0 0 0-3.743 3.737 9.288 9.288 0 0 0-.596 3.101c-.061 1.367-.08 1.8-.08 5.265s0 3.909.08 5.265a9.335 9.335 0 0 0 .596 3.104 6.548 6.548 0 0 0 3.744 3.735 9.37 9.37 0 0 0 3.106.639c1.369.061 1.803.08 5.274.08s3.916 0 5.274-.08a9.357 9.357 0 0 0 3.108-.595 6.555 6.555 0 0 0 3.743-3.737 9.35 9.35 0 0 0 .596-3.104c.061-1.365.08-1.798.08-5.265-.003-3.466-.003-3.906-.082-5.264zM15.99 22.531c-3.631 0-6.572-2.936-6.572-6.561s2.941-6.561 6.572-6.561c3.628 0 6.572 2.936 6.572 6.561s-2.944 6.561-6.572 6.561zm6.833-11.835a1.53 1.53 0 1 1 0-3.06 1.53 1.53 0 1 1 0 3.06z"/>
      <path d="M15.992 19.976a4.004 4.004 0 1 0 0-8.009 4.004 4.004 0 0 0 0 8.009z"/>
    </symbol>
    <symbol id="icon-sun" viewBox="0 0 32 32">
      <path d="M15.434.333a.653.653 0 0 1 1.133 0l1.84 3.203c.19.33.621.429.935.214l3.081-2.107a.653.653 0 0 1 1.02.496l.239 3.642a.653.653 0 0 0 .754.602l3.69-.584c.504-.08.9.423.706.894l-1.386 3.36a.653.653 0 0 0 .421.876l3.555 1.036a.653.653 0 0 1 .252 1.115l-2.731 2.433a.654.654 0 0 0 0 .975l2.731 2.433a.653.653 0 0 1-.252 1.115l-3.555 1.036a.653.653 0 0 0-.421.876l1.386 3.36a.653.653 0 0 1-.706.894l-3.69-.584a.653.653 0 0 0-.754.602l-.239 3.642a.653.653 0 0 1-1.02.496l-3.081-2.107a.653.653 0 0 0-.935.214l-1.84 3.203a.653.653 0 0 1-1.133 0l-1.84-3.203a.653.653 0 0 0-.935-.214l-3.081 2.107a.652.652 0 0 1-1.02-.496l-.239-3.642a.653.653 0 0 0-.754-.602l-3.69.584a.653.653 0 0 1-.706-.894l1.386-3.36a.653.653 0 0 0-.421-.876L.579 20.036a.653.653 0 0 1-.252-1.115l2.731-2.433a.654.654 0 0 0 0-.975L.327 13.08a.653.653 0 0 1 .252-1.115l3.555-1.036a.653.653 0 0 0 .421-.876l-1.386-3.36a.653.653 0 0 1 .706-.894l3.69.584c.38.06.729-.219.754-.602l.239-3.642a.653.653 0 0 1 1.02-.496l3.081 2.107a.653.653 0 0 0 .935-.214l1.84-3.203z"/>
    </symbol>
    <symbol id="icon-youtube" viewBox="0 0 32 32">
      <path d="M22.409 4.667c-1.058-.062-3.236-.124-6.533-.124h-.436c-3.173 0-5.289.062-6.347.187-1.431.124-2.427.498-2.987.996-.498.436-.871 1.244-.996 2.302-.062.684-.124 2.116-.124 4.293v.311c0 2.053.062 3.484.187 4.169.187.996.498 1.742 1.12 2.178.622.498 1.68.809 3.173.933 1.058.062 3.236.124 6.533.124h.436c3.173 0 5.289-.062 6.347-.187 1.431-.124 2.427-.498 2.987-.996.498-.436.871-1.244.996-2.302.062-.684.124-2.116.124-4.293v-.311c0-2.053-.062-3.484-.187-4.169-.187-.996-.498-1.742-1.12-2.178-.622-.498-1.68-.809-3.173-.933zm-2.427 7.653-6.844 4.107V8.214l6.844 4.107z"/>
    </symbol>
    <symbol id="icon-background-col" viewBox="0 0 13 32">
<path fill="#ecd979" style="fill: var(--color1, #ecd979)" d="M12.969 31.964h-1.122v-1.142h1.122v1.142z"></path>
<path fill="#ecd979" style="fill: var(--color1, #ecd979)" d="M11.847 31.964h-1.122v-1.142h1.122v1.142zM7.358 31.964h-1.122v-1.142h1.122v1.142z"></path>
<path fill="#ecd979" style="fill: var(--color1, #ecd979)" d="M6.236 31.964h-1.122v-1.142h1.122v1.142zM5.114 31.964h-1.122v-1.142h1.122v1.142zM12.969 30.823h-1.122v-1.142h1.122v1.142zM8.48 30.823h-1.122v-1.142h1.122v1.142zM7.358 30.823h-1.122v-1.142h1.122v1.142z"></path>
<path fill="#ecd979" style="fill: var(--color1, #ecd979)" d="M6.236 30.823h-1.122v-1.142h1.122v1.142zM9.602 29.681h-1.122v-1.142h1.122v1.142z"></path>
<path fill="#ecd979" style="fill: var(--color1, #ecd979)" d="M8.48 29.681h-1.122v-1.142h1.122v1.142zM7.358 29.681h-1.122v-1.142h1.122v1.142zM10.725 28.54h-1.122v-1.142h1.122v1.142zM9.602 28.54h-1.122v-1.142h1.122v1.142z"></path>
<path fill="#ecd979" style="fill: var(--color1, #ecd979)" d="M8.48 28.54h-1.122v-1.142h1.122v1.142zM2.87 28.54h-1.122v-1.142h1.122v1.142zM1.748 28.54h-1.122v-1.142h1.122v1.142zM0.626 28.54h-1.122v-1.142h1.122v1.142zM11.847 27.398h-1.122v-1.142h1.122v1.142zM10.725 27.398h-1.122v-1.142h1.122v1.142zM9.602 27.398h-1.122v-1.142h1.122v1.142zM1.748 27.398h-1.122v-1.142h1.122v1.142zM0.626 27.398h-1.122v-1.142h1.122v1.142zM11.847 26.256h-1.122v-1.142h1.122v1.142zM10.725 26.256h-1.122v-1.142h1.122v1.142zM0.626 26.256h-1.122v-1.142h1.122v1.142zM11.847 25.115h-1.122v-1.142h1.122v1.142zM6.236 25.115h-1.122v-1.142h1.122v1.142zM6.236 23.973h-1.122v-1.142h1.122v1.142zM5.114 23.973h-1.122v-1.142h1.122v1.142zM6.236 22.832h-1.122v-1.142h1.122v1.142zM5.114 22.832h-1.122v-1.142h1.122v1.142zM3.992 22.832h-1.122v-1.142h1.122v1.142zM5.114 21.69h-1.122v-1.142h1.122v1.142zM3.992 21.69h-1.122v-1.142h1.122v1.142zM9.602 20.549h-1.122v-1.142h1.122v1.142z"></path>
<path fill="#ecd979" style="fill: var(--color1, #ecd979)" d="M8.48 20.549h-1.122v-1.142h1.122v1.142zM7.358 20.549h-1.122v-1.142h1.122v1.142zM3.992 20.549h-1.122v-1.142h1.122v1.142zM0.626 20.549h-1.122v-1.142h1.122v1.142zM12.969 19.407h-1.122v-1.142h1.122v1.142zM8.48 19.407h-1.122v-1.142h1.122v1.142zM7.358 19.407h-1.122v-1.142h1.122v1.142z"></path>
<path fill="#ecd979" style="fill: var(--color1, #ecd979)" d="M6.236 19.407h-1.122v-1.142h1.122v1.142zM1.748 19.407h-1.122v-1.142h1.122v1.142zM0.626 19.407h-1.122v-1.142h1.122v1.142zM12.969 18.265h-1.122v-1.142h1.122v1.142z"></path>
<path fill="#ecd979" style="fill: var(--color1, #ecd979)" d="M11.847 18.265h-1.122v-1.142h1.122v1.142zM7.358 18.265h-1.122v-1.142h1.122v1.142z"></path>
<path fill="#ecd979" style="fill: var(--color1, #ecd979)" d="M6.236 18.265h-1.122v-1.142h1.122v1.142zM5.114 18.265h-1.122v-1.142h1.122v1.142zM2.87 18.265h-1.122v-1.142h1.122v1.142zM1.748 18.265h-1.122v-1.142h1.122v1.142zM12.969 17.124h-1.122v-1.142h1.122v1.142z"></path>
<path fill="#ecd979" style="fill: var(--color1, #ecd979)" d="M11.847 17.124h-1.122v-1.142h1.122v1.142zM10.725 17.124h-1.122v-1.142h1.122v1.142z"></path>
<path fill="#ecd979" style="fill: var(--color1, #ecd979)" d="M12.969 15.982h-1.122v-1.142h1.122v1.142z"></path>
<path fill="#ecd979" style="fill: var(--color1, #ecd979)" d="M11.847 15.982h-1.122v-1.142h1.122v1.142zM7.358 15.982h-1.122v-1.142h1.122v1.142z"></path>
<path fill="#ecd979" style="fill: var(--color1, #ecd979)" d="M6.236 15.982h-1.122v-1.142h1.122v1.142zM5.114 15.982h-1.122v-1.142h1.122v1.142zM2.87 15.982h-1.122v-1.142h1.122v1.142zM1.748 15.982h-1.122v-1.142h1.122v1.142zM12.969 14.841h-1.122v-1.142h1.122v1.142zM8.48 14.841h-1.122v-1.142h1.122v1.142z"></path>
<path fill="#ecd979" style="fill: var(--color1, #ecd979)" d="M7.358 14.841h-1.122v-1.142h1.122v1.142z"></path>
<path fill="#ecd979" style="fill: var(--color1, #ecd979)" d="M6.236 14.841h-1.122v-1.142h1.122v1.142zM1.748 14.841h-1.122v-1.142h1.122v1.142zM0.626 14.841h-1.122v-1.142h1.122v1.142zM9.602 13.699h-1.122v-1.142h1.122v1.142z"></path>
<path fill="#ecd979" style="fill: var(--color1, #ecd979)" d="M8.48 13.699h-1.122v-1.142h1.122v1.142zM7.358 13.699h-1.122v-1.142h1.122v1.142zM3.992 13.699h-1.122v-1.142h1.122v1.142zM0.626 13.699h-1.122v-1.142h1.122v1.142zM5.114 12.557h-1.122v-1.142h1.122v1.142zM3.992 12.557h-1.122v-1.142h1.122v1.142zM6.236 11.416h-1.122v-1.142h1.122v1.142zM5.114 11.416h-1.122v-1.142h1.122v1.142zM3.992 11.416h-1.122v-1.142h1.122v1.142z"></path>
<path fill="#ecd979" style="fill: var(--color1, #ecd979)" d="M6.236 10.274h-1.122v-1.142h1.122v1.142zM5.114 10.274h-1.122v-1.142h1.122v1.142zM6.236 9.133h-1.122v-1.141h1.122v1.141zM11.847 7.991h-1.122v-1.141h1.122v1.142zM11.847 6.849h-1.122v-1.141h1.122v1.141zM10.725 6.849h-1.122v-1.141h1.122v1.141zM0.626 6.849h-1.122v-1.141h1.122v1.141zM11.847 5.708h-1.122v-1.141h1.122v1.141zM10.725 5.708h-1.122v-1.141h1.122v1.141zM9.602 5.708h-1.122v-1.141h1.122v1.141zM1.748 5.708h-1.122v-1.141h1.122v1.141zM0.626 5.708h-1.122v-1.141h1.122v1.141zM10.725 4.566h-1.122v-1.142h1.122v1.142zM9.602 4.566h-1.122v-1.142h1.122v1.142z"></path>
<path fill="#ecd979" style="fill: var(--color1, #ecd979)" d="M8.48 4.566h-1.122v-1.142h1.122v1.142zM2.87 4.566h-1.122v-1.142h1.122v1.142zM1.748 4.566h-1.122v-1.142h1.122v1.142zM0.626 4.566h-1.122v-1.142h1.122v1.142z"></path>
<path fill="#ecd979" style="fill: var(--color1, #ecd979)" d="M9.602 3.425h-1.122v-1.141h1.122v1.141z"></path>
<path fill="#ecd979" style="fill: var(--color1, #ecd979)" d="M8.48 3.425h-1.122v-1.141h1.122v1.141zM7.358 3.425h-1.122v-1.141h1.122v1.141zM12.969 2.283h-1.122v-1.141h1.122v1.141zM8.48 2.283h-1.122v-1.141h1.122v1.141zM7.358 2.283h-1.122v-1.141h1.122v1.141z"></path>
<path fill="#ecd979" style="fill: var(--color1, #ecd979)" d="M6.236 2.283h-1.122v-1.141h1.122v1.141zM12.969 1.141h-1.122v-1.141h1.122v1.141z"></path>
<path fill="#ecd979" style="fill: var(--color1, #ecd979)" d="M11.847 1.141h-1.122v-1.141h1.122v1.141zM7.358 1.141h-1.122v-1.141h1.122v1.141z"></path>
<path fill="#ecd979" style="fill: var(--color1, #ecd979)" d="M6.236 1.141h-1.122v-1.141h1.122v1.141zM5.114 1.141h-1.122v-1.141h1.122v1.141z"></path>
</symbol>
  </defs>
</svg>